<mxfile host="app.diagrams.net" modified="2022-06-15T08:38:15.478Z" agent="5.0 (Windows NT 10.0; Win64; x64) AppleWebKit/537.36 (KHTML, like Gecko) Chrome/102.0.5005.115 Safari/537.36" etag="98PAruM9kUdUc35_VRO-" version="17.4.4" type="github">
  <diagram id="2cqyYulOkFPa9HdHJvXc" name="Page-1">
    <mxGraphModel dx="2377" dy="867" grid="0" gridSize="10" guides="1" tooltips="1" connect="1" arrows="1" fold="1" page="1" pageScale="1" pageWidth="827" pageHeight="1169" math="0" shadow="0">
      <root>
        <mxCell id="0" />
        <mxCell id="1" parent="0" />
        <mxCell id="PrWpZeejSdHHaR8uLoIW-1" value="" style="rounded=1;whiteSpace=wrap;html=1;fillColor=#d5e8d4;strokeColor=#82b366;" vertex="1" parent="1">
          <mxGeometry x="-269" y="17" width="1199" height="765" as="geometry" />
        </mxCell>
        <mxCell id="PrWpZeejSdHHaR8uLoIW-5" value="&lt;pre style=&quot;background-color: rgb(43 , 43 , 43) ; color: rgb(169 , 183 , 198) ; font-family: &amp;#34;jetbrains mono&amp;#34; , monospace&quot;&gt;&lt;span style=&quot;color: rgb(230 , 177 , 99)&quot;&gt;&lt;font style=&quot;font-size: 18px&quot;&gt;GraphNamespaces&lt;/font&gt;&lt;/span&gt;&lt;/pre&gt;" style="text;html=1;strokeColor=none;fillColor=none;align=center;verticalAlign=middle;whiteSpace=wrap;rounded=0;" vertex="1" parent="1">
          <mxGeometry x="266" y="27" width="60" height="30" as="geometry" />
        </mxCell>
        <mxCell id="PrWpZeejSdHHaR8uLoIW-6" value="" style="rounded=1;whiteSpace=wrap;html=1;fontSize=18;" vertex="1" parent="1">
          <mxGeometry x="-104" y="394" width="120" height="60" as="geometry" />
        </mxCell>
        <mxCell id="PrWpZeejSdHHaR8uLoIW-7" value="&lt;ol&gt;&lt;li&gt;解析请求参数&lt;/li&gt;&lt;li&gt;设置namespaceMap&lt;/li&gt;&lt;li&gt;设置appender等&lt;/li&gt;&lt;/ol&gt;&lt;div style=&quot;text-align: justify&quot;&gt;&lt;/div&gt;" style="rounded=1;whiteSpace=wrap;html=1;fontSize=18;align=left;" vertex="1" parent="1">
          <mxGeometry x="-175" y="115" width="327" height="169" as="geometry" />
        </mxCell>
        <mxCell id="PrWpZeejSdHHaR8uLoIW-8" value="config Option" style="text;html=1;strokeColor=#d6b656;fillColor=#fff2cc;align=center;verticalAlign=middle;whiteSpace=wrap;rounded=0;fontSize=18;" vertex="1" parent="1">
          <mxGeometry x="-79" y="65" width="119" height="24" as="geometry" />
        </mxCell>
      </root>
    </mxGraphModel>
  </diagram>
</mxfile>
